<?xml version="1.0" encoding="us-ascii" standalone="no"?><svg xmlns="http://www.w3.org/2000/svg" xmlns:xlink="http://www.w3.org/1999/xlink" contentStyleType="text/css" height="1275px" preserveAspectRatio="none" style="width:1304px;height:1275px;background:#FFFFFF;" version="1.1" viewBox="0 0 1304 1275" width="1304px" zoomAndPan="magnify"><defs/><g><!--cluster DigitalOcean Cloud--><g id="cluster_DigitalOcean Cloud"><path d="M75.5539,148.1052 C92.9675,111.0737 124.5868,112.4569 142.6339,147.5157 C160.6359,115.8889 189.1061,109.6728 209.7562,144.8552 C230.0522,106.8504 254.867,103.4196 283.3042,136.4229 C305.5912,104.0242 341.7568,103.8471 361.8139,139.0139 C380.0401,108.9044 414.002,103.2109 431.336,139.9418 C452.067,107.2162 479.4403,104.8705 501.5436,138.4896 C525.4358,101.1696 561.581,107.8135 576.7695,147.0428 C591.8188,115.3353 623.2689,114.558 640.2205,145.1038 C662.6385,110.3794 696.4262,109.7559 716.5736,147.4963 C736.4453,111.7304 771.3822,107.3947 792.0356,146.7106 C812.0379,113.9232 832.5712,113.7499 854.2692,145.0643 C875.2696,105.261 906.9999,103.9636 929.6468,143.5 C936.1448,143.5953 937.5687,147.6595 935.3107,152.984 C970.8513,176.9287 970.1561,202.5026 933.623,224.7525 C968.6314,241.9003 981.0138,279.9537 940.1448,303.394 C975.5738,330.7587 969.0308,352.0565 933.8206,373.0035 C966.6747,396.9789 969.4211,422.8584 938.7036,450.8227 C970.7844,477.7824 973.1258,501.2469 937.3523,527.0031 C981.5127,545.2958 980.1069,581.6784 944.5166,607.1041 C982.812,628.5201 977.41,657.3612 943.9227,678.1774 C981.8136,702.8523 981.3684,733.4342 949.0074,762.3528 C976.2728,790.8238 973.8644,815.0441 937.0283,832.5812 C973.5791,856.6293 971.6239,882.4816 937.7613,907.2212 C977.6331,931.1894 982.8127,966.6185 939.0676,991.8769 C975.2452,1012.4709 979.7162,1038.2517 944.9511,1064.5862 C972.3753,1094.1449 978.6601,1122.4545 933.3291,1140.9386 C962.7263,1168.5445 960.7125,1196.2579 922.6468,1214 C931.1494,1213.2017 935.8796,1217.2117 933.1842,1226.1362 C910.4817,1252.688 878.3131,1256.5607 862.3603,1218.7131 C841.2473,1258.6093 803.7675,1255.3218 785.0562,1216.3588 C770.142,1251.9098 744.7852,1259.6836 718.3946,1227.6842 C694.1476,1268.0504 665.8015,1265.0452 643.0606,1226.2508 C624.1209,1257.4428 593.848,1260.0027 577.8388,1223.4303 C550.8589,1263.7237 514.6367,1260.7449 493.0243,1217.9512 C475.1147,1255.6144 448.3345,1257.8258 421.9376,1226.7251 C396.5001,1257.8111 371.8141,1253.5314 352.7388,1219.9202 C329.5416,1247.7083 305.3822,1253.4829 283.6905,1218.2703 C264.8257,1250.9567 239.5452,1248.2821 218.0663,1221.1375 C195.0761,1257.1663 167.5818,1254.5168 144.475,1221.2613 C114.8274,1258.8589 72.0388,1251.9673 55.6468,1207 C58.3786,1203.8949 61.1014,1204.3393 62.5311,1208.2734 C28.8502,1192.1455 25.9762,1161.6114 58.7869,1141.7416 C23.358,1114.358 21.6799,1087.6302 57.7271,1059.3274 C25.5929,1034.9687 15.4434,1013.2853 54.7133,985.9921 C24.0237,957.804 24.0651,930.0899 61.4178,907.7308 C22.1794,890.5525 14.9047,857.3273 54.1577,832.5673 C10.7568,809.2171 6,782.7937 47.3909,752.2957 C14.7879,730.4159 12.7297,703.1868 47.807,681.7059 C12.5353,656.2215 12.3007,633.4708 51.0053,611.3492 C12.4047,580.8813 11.8405,552.0819 57.5213,528.2204 C16.2788,508.0159 22.0709,481.5233 50.4564,454.6339 C15.1775,428.1416 18.995,389.4898 63.9124,376.8754 C22.8092,356.5429 23.1349,328.8035 58.4022,302.7908 C26.6189,282.3309 22.2172,245.907 60.5169,227.4132 C15.1899,194.5844 12.3348,167.0881 62.6468,136.5 C73.1888,133.2669 76.7899,138.2392 75.5539,148.1052 " fill="#D3D3D3" style="stroke:#181818;stroke-width:1.0;"/><text fill="#000000" font-family="Arial" font-size="14" font-weight="bold" lengthAdjust="spacing" textLength="134" x="425.6468" y="154.6318">DigitalOcean Cloud</text></g><!--cluster c) Ubuntu Server + docker Engine--><g id="cluster_c) Ubuntu Server + docker Engine"><rect fill="#B0C4DE" height="1026.5" rx="5" ry="5" style="stroke:#181818;stroke-width:1.0;" width="842" x="71.6468" y="171.5"/><text fill="#000000" font-family="Arial" font-size="14" font-weight="bold" lengthAdjust="spacing" textLength="238" x="373.6468" y="186.6318">c) Ubuntu Server + docker Engine</text></g><!--cluster caprover--><g id="cluster_caprover"><rect fill="#E0FFFF" height="138" rx="5" ry="5" style="stroke:#181818;stroke-width:1.0;" width="332" x="511.6468" y="420"/><text fill="#000000" font-family="Arial" font-size="14" font-weight="bold" lengthAdjust="spacing" textLength="172" x="591.6468" y="435.1318">c1) CapRover Platform &#128051;</text></g><!--cluster frontend_package--><g id="cluster_frontend_package"><path d="M562.6468,214.5 L679.6468,214.5 A7.5,7.5 0 0 1 684.6468,219.5 L691.6468,236.5986 L690.6468,236.5986 A5,5 0 0 1 695.6468,241.5986 L695.6468,331.5 A5,5 0 0 1 690.6468,336.5 L562.6468,336.5 A5,5 0 0 1 557.6468,331.5 L557.6468,219.5 A5,5 0 0 1 562.6468,214.5 " fill="#E0FFFF" style="stroke:#000000;stroke-width:1.5;"/><line style="stroke:#000000;stroke-width:1.5;" x1="557.6468" x2="691.6468" y1="236.5986" y2="236.5986"/><text fill="#000000" font-family="Arial" font-size="14" font-weight="bold" lengthAdjust="spacing" textLength="121" x="561.6468" y="229.6318">c2) Frontend App</text></g><!--cluster backend_package--><g id="cluster_backend_package"><path d="M570.6468,679.5 L678.6468,679.5 A7.5,7.5 0 0 1 683.6468,684.5 L690.6468,701.5986 L884.6468,701.5986 A5,5 0 0 1 889.6468,706.5986 L889.6468,806.5 A5,5 0 0 1 884.6468,811.5 L570.6468,811.5 A5,5 0 0 1 565.6468,806.5 L565.6468,684.5 A5,5 0 0 1 570.6468,679.5 " fill="#E0FFFF" style="stroke:#000000;stroke-width:1.5;"/><line style="stroke:#000000;stroke-width:1.5;" x1="565.6468" x2="690.6468" y1="701.5986" y2="701.5986"/><text fill="#000000" font-family="Arial" font-size="14" font-weight="bold" lengthAdjust="spacing" textLength="112" x="569.6468" y="694.6318">c3) Backend API</text></g><!--cluster database_package--><g id="cluster_database_package"><path d="M100.6468,436 L228.6468,436 A7.5,7.5 0 0 1 233.6468,441 L240.6468,458.0986 L342.6468,458.0986 A5,5 0 0 1 347.6468,463.0986 L347.6468,814 A5,5 0 0 1 342.6468,819 L100.6468,819 A5,5 0 0 1 95.6468,814 L95.6468,441 A5,5 0 0 1 100.6468,436 " fill="#E0FFFF" style="stroke:#000000;stroke-width:1.5;"/><line style="stroke:#000000;stroke-width:1.5;" x1="95.6468" x2="240.6468" y1="458.0986" y2="458.0986"/><text fill="#000000" font-family="Arial" font-size="14" font-weight="bold" lengthAdjust="spacing" textLength="132" x="99.6468" y="451.1318">c4) Database Stack</text></g><!--cluster monitoring_package--><g id="cluster_monitoring_package"><path d="M440.6468,906.5 L577.6468,906.5 A7.5,7.5 0 0 1 582.6468,911.5 L589.6468,928.5986 L861.6468,928.5986 A5,5 0 0 1 866.6468,933.5986 L866.6468,1169 A5,5 0 0 1 861.6468,1174 L440.6468,1174 A5,5 0 0 1 435.6468,1169 L435.6468,911.5 A5,5 0 0 1 440.6468,906.5 " fill="#E0FFFF" style="stroke:#000000;stroke-width:1.5;"/><line style="stroke:#000000;stroke-width:1.5;" x1="435.6468" x2="589.6468" y1="928.5986" y2="928.5986"/><text fill="#000000" font-family="Arial" font-size="14" font-weight="bold" lengthAdjust="spacing" textLength="141" x="439.6468" y="921.6318">c5) Monitoring Apps</text></g><!--cluster d) External Services--><g id="cluster_d) External Services"><path d="M966.6468,906.5 L1104.6468,906.5 A7.5,7.5 0 0 1 1109.6468,911.5 L1116.6468,928.5986 L1259.6468,928.5986 A5,5 0 0 1 1264.6468,933.5986 L1264.6468,1007.5 A5,5 0 0 1 1259.6468,1012.5 L966.6468,1012.5 A5,5 0 0 1 961.6468,1007.5 L961.6468,911.5 A5,5 0 0 1 966.6468,906.5 " fill="#ADD8E6" style="stroke:#000000;stroke-width:1.5;"/><line style="stroke:#000000;stroke-width:1.5;" x1="961.6468" x2="1116.6468" y1="928.5986" y2="928.5986"/><text fill="#000000" font-family="Arial" font-size="14" font-weight="bold" lengthAdjust="spacing" textLength="142" x="965.6468" y="921.6318">d) External Services</text></g><!--entity nginx--><g id="elem_nginx"><rect fill="#FFC0CB" height="68.2959" rx="5" ry="5" style="stroke:#181818;stroke-width:0.5;" width="299" x="528.1468" y="474"/><text fill="#000000" font-family="Arial" font-size="14" lengthAdjust="spacing" textLength="55" x="538.1468" y="497.1318">NGINX &#128051;</text><text fill="#000000" font-family="Arial" font-size="14" lengthAdjust="spacing" textLength="279" x="538.1468" y="513.2305">(CapRover Reverse Proxy &amp; Load Balancer)</text><ellipse cx="543.6468" cy="524.7959" fill="#000000" rx="2.5" ry="2.5" style="stroke:#000000;stroke-width:0.0;"/><text fill="#000000" font-family="Arial" font-size="14" lengthAdjust="spacing" textLength="154" x="550.1468" y="529.3291">.bidgallery.publicvm.com</text></g><!--entity fe--><g id="elem_fe"><rect fill="#FFC0CB" height="52.1973" rx="5" ry="5" style="stroke:#181818;stroke-width:0.5;" width="106" x="573.6468" y="268.5"/><text fill="#000000" font-family="Arial" font-size="14" lengthAdjust="spacing" textLength="86" x="583.6468" y="291.6318">React + TS &#128051;</text><text fill="#000000" font-family="Arial" font-size="14" lengthAdjust="spacing" textLength="69" x="583.6468" y="307.7305">(Vite Build)</text></g><!--entity api--><g id="elem_api"><polygon fill="#FFC0CB" points="582.1468,743.5,592.1468,733.5,873.1468,733.5,873.1468,785.6973,863.1468,795.6973,582.1468,795.6973,582.1468,743.5" style="stroke:#181818;stroke-width:0.5;"/><line style="stroke:#181818;stroke-width:0.5;" x1="863.1468" x2="873.1468" y1="743.5" y2="733.5"/><line style="stroke:#181818;stroke-width:0.5;" x1="582.1468" x2="863.1468" y1="743.5" y2="743.5"/><line style="stroke:#181818;stroke-width:0.5;" x1="863.1468" x2="863.1468" y1="743.5" y2="795.6973"/><text fill="#000000" font-family="Arial" font-size="14" lengthAdjust="spacing" textLength="245" x="597.1468" y="766.6318">Spring Boot + Embeded Tomcat 1..N &#128051;</text><text fill="#000000" font-family="Arial" font-size="14" lengthAdjust="spacing" textLength="251" x="597.1468" y="782.7305">https://backend.bidgallery.publicvm.com</text></g><!--entity db--><g id="elem_db"><path d="M112.1468,736 C112.1468,726 221.6468,726 221.6468,726 C221.6468,726 331.1468,726 331.1468,736 L331.1468,793.2959 C331.1468,803.2959 221.6468,803.2959 221.6468,803.2959 C221.6468,803.2959 112.1468,803.2959 112.1468,793.2959 L112.1468,736 " fill="#FFC0CB" style="stroke:#181818;stroke-width:0.5;"/><path d="M112.1468,736 C112.1468,746 221.6468,746 221.6468,746 C221.6468,746 331.1468,746 331.1468,736 " fill="none" style="stroke:#181818;stroke-width:0.5;"/><text fill="#000000" font-family="Arial" font-size="14" lengthAdjust="spacing" textLength="69" x="122.1468" y="763.1318">MariaDB &#128051;</text><text fill="#000000" font-family="Arial" font-size="14" lengthAdjust="spacing" textLength="160" x="122.1468" y="779.2305">srv-captain--database-db</text><text fill="#000000" font-family="Arial" font-size="14" lengthAdjust="spacing" textLength="199" x="122.1468" y="795.3291">Users, Artists, Products, Orders</text></g><!--entity phpmyadmin--><g id="elem_phpmyadmin"><rect fill="#FFC0CB" height="36.0986" rx="5" ry="5" style="stroke:#181818;stroke-width:0.5;" width="116" x="195.6468" y="490"/><text fill="#000000" font-family="Arial" font-size="14" lengthAdjust="spacing" textLength="96" x="205.6468" y="513.1318">phpMyAdmin &#128051;</text></g><!--entity loki--><g id="elem_loki"><rect fill="#FFC0CB" height="36.0986" rx="5" ry="5" style="stroke:#181818;stroke-width:0.5;" width="65" x="656.1468" y="960.5"/><text fill="#000000" font-family="Arial" font-size="14" lengthAdjust="spacing" textLength="45" x="666.1468" y="983.6318">Loki  &#128051;</text></g><!--entity prometheus--><g id="elem_prometheus"><rect fill="#FFC0CB" height="36.0986" rx="5" ry="5" style="stroke:#181818;stroke-width:0.5;" width="111" x="452.1468" y="960.5"/><text fill="#000000" font-family="Arial" font-size="14" lengthAdjust="spacing" textLength="91" x="462.1468" y="983.6318">Prometheus &#128051;</text></g><!--entity grafana--><g id="elem_grafana"><rect fill="#FFC0CB" height="36.0986" rx="5" ry="5" style="stroke:#181818;stroke-width:0.5;" width="87" x="452.1468" y="1114"/><text fill="#000000" font-family="Arial" font-size="14" lengthAdjust="spacing" textLength="67" x="462.1468" y="1137.1318">Grafana &#128051;</text></g><!--entity promtail--><g id="elem_promtail"><rect fill="#FFC0CB" height="52.1973" rx="5" ry="5" style="stroke:#181818;stroke-width:0.5;" width="114" x="713.6468" y="1106"/><text fill="#000000" font-family="Arial" font-size="14" lengthAdjust="spacing" textLength="66" x="723.6468" y="1129.1318">Promtail &#128051;</text><text fill="#000000" font-family="Arial" font-size="14" lengthAdjust="spacing" textLength="94" x="723.6468" y="1145.2305">(Log Collector)</text></g><!--entity payment--><g id="elem_payment"><rect fill="#FFC0CB" height="36.0986" rx="5" ry="5" style="stroke:#181818;stroke-width:0.5;" width="125" x="978.1468" y="960.5"/><text fill="#000000" font-family="Arial" font-size="14" lengthAdjust="spacing" textLength="105" x="988.1468" y="983.6318">d1) Payment API</text></g><!--entity auth--><g id="elem_auth"><rect fill="#FFC0CB" height="36.0986" rx="5" ry="5" style="stroke:#181818;stroke-width:0.5;" width="110" x="1138.6468" y="960.5"/><text fill="#000000" font-family="Arial" font-size="14" lengthAdjust="spacing" textLength="90" x="1148.6468" y="983.6318">d2) OAuth API</text></g><!--entity user--><g id="elem_user"><ellipse cx="1017.6468" cy="14" fill="#ADD8E6" rx="8" ry="8" style="stroke:#181818;stroke-width:0.5;"/><path d="M1017.6468,22 L1017.6468,49 M1004.6468,30 L1030.6468,30 M1017.6468,49 L1004.6468,64 M1017.6468,49 L1030.6468,64 " fill="none" style="stroke:#181818;stroke-width:0.5;"/><text fill="#000000" font-family="Arial" font-size="14" lengthAdjust="spacing" textLength="46" x="994.6468" y="78.6318">a) User</text></g><!--entity browser--><g id="elem_browser"><rect fill="#ADD8E6" height="52.1973" rx="5" ry="5" style="stroke:#181818;stroke-width:0.5;" width="128" x="953.6468" y="268.5"/><text fill="#000000" font-family="Arial" font-size="14" lengthAdjust="spacing" textLength="108" x="963.6468" y="291.6318">b) Client Browser</text><text fill="#000000" font-family="Arial" font-size="14" lengthAdjust="spacing" textLength="78" x="963.6468" y="307.7305">(React SPA)</text></g><g id="elem_GMN40"><path d="M954.1468,704.5 L954.1468,760.5 L873.3368,764.5 L954.1468,768.5 L954.1468,824.0898 A5,5 0 0 0 959.1468,829.0898 L1168.1468,829.0898 A5,5 0 0 0 1173.1468,824.0898 L1173.1468,709.5 L1163.1468,699.5 L959.1468,699.5 A5,5 0 0 0 954.1468,704.5 " fill="#FEFFDD" style="stroke:#181818;stroke-width:0.5;"/><path d="M1163.1468,699.5 L1163.1468,707 A2.5,2.5 0 0 0 1165.6468,709.5 L1173.1468,709.5 L1163.1468,699.5 " fill="#FEFFDD" style="stroke:#181818;stroke-width:0.5;"/><text fill="#000000" font-family="Arial" font-size="13" font-weight="bold" lengthAdjust="spacing" textLength="92" x="960.1468" y="716.6938">API Endpoints:</text><text fill="#000000" font-family="Arial" font-size="13" lengthAdjust="spacing" textLength="197" x="960.1468" y="731.6426">&#8226; Swagger: /swagger-ui/index.html</text><text fill="#000000" font-family="Arial" font-size="13" lengthAdjust="spacing" textLength="164" x="960.1468" y="746.5913">&#8226; Authentication: /api/auth/**</text><text fill="#000000" font-family="Arial" font-size="13" lengthAdjust="spacing" textLength="158" x="960.1468" y="761.54">&#8226; Products: /api/products/**</text><text fill="#000000" font-family="Arial" font-size="13" lengthAdjust="spacing" textLength="190" x="960.1468" y="776.4888">&#8226; Bidding: /api/checkout/placebid</text><text fill="#000000" font-family="Arial" font-size="13" lengthAdjust="spacing" textLength="198" x="960.1468" y="791.4375">&#8226; Orders: /api/checkout/placeorder</text><text fill="#000000" font-family="Arial" font-size="13" lengthAdjust="spacing" textLength="144" x="960.1468" y="806.3862">&#8226; Health: /actuator/health</text><text fill="#000000" font-family="Arial" font-size="13" lengthAdjust="spacing" textLength="183" x="960.1468" y="821.335">&#8226; Metrics: /actuator/prometheus</text></g><g id="elem_GMN43"><path d="M954.1468,418.5 L954.1468,504 L827.2668,508 L954.1468,512 L954.1468,597.8848 A5,5 0 0 0 959.1468,602.8848 L1292.1468,602.8848 A5,5 0 0 0 1297.1468,597.8848 L1297.1468,423.5 L1287.1468,413.5 L959.1468,413.5 A5,5 0 0 0 954.1468,418.5 " fill="#FEFFDD" style="stroke:#181818;stroke-width:0.5;"/><path d="M1287.1468,413.5 L1287.1468,421 A2.5,2.5 0 0 0 1289.6468,423.5 L1297.1468,423.5 L1287.1468,413.5 " fill="#FEFFDD" style="stroke:#181818;stroke-width:0.5;"/><text fill="#000000" font-family="Arial" font-size="13" font-weight="bold" lengthAdjust="spacing" textLength="153" x="960.1468" y="430.6938">CapRover Management:</text><text fill="#000000" font-family="Arial" font-size="13" lengthAdjust="spacing" textLength="143" x="960.1468" y="445.6426">&#8226; Container orchestration</text><text fill="#000000" font-family="Arial" font-size="13" lengthAdjust="spacing" textLength="173" x="960.1468" y="460.5913">&#8226; SSL certificate management</text><text fill="#000000" font-family="Arial" font-size="13" lengthAdjust="spacing" textLength="96" x="960.1468" y="475.54">&#8226; Load balancing</text><text fill="#000000" font-family="Arial" font-size="13" lengthAdjust="spacing" textLength="4" x="960.1468" y="490.4888">&#160;</text><text fill="#000000" font-family="Arial" font-size="13" font-weight="bold" lengthAdjust="spacing" textLength="158" x="960.1468" y="505.4375">CapRover NGINX Routes:</text><text fill="#000000" font-family="Arial" font-size="13" lengthAdjust="spacing" textLength="279" x="960.1468" y="520.3862">&#8226; frontend.bidgallery.publicvm.com &#8594; React App</text><text fill="#000000" font-family="Arial" font-size="13" lengthAdjust="spacing" textLength="314" x="960.1468" y="535.335">&#8226; backend.bidgallery.publicvm.com &#8594; Spring Boot API</text><text fill="#000000" font-family="Arial" font-size="13" lengthAdjust="spacing" textLength="259" x="960.1468" y="550.2837">&#8226; grafana.bidgallery.publicvm.com &#8594; Grafana</text><text fill="#000000" font-family="Arial" font-size="13" lengthAdjust="spacing" textLength="310" x="960.1468" y="565.2324">&#8226; prometheus.bidgallery.publicvm.com &#8594; Prometheus</text><text fill="#000000" font-family="Arial" font-size="13" lengthAdjust="spacing" textLength="216" x="960.1468" y="580.1812">&#8226; loki.bidgallery.publicvm.com &#8594; Loki</text><text fill="#000000" font-family="Arial" font-size="13" lengthAdjust="spacing" textLength="322" x="960.1468" y="595.1299">&#8226; phpmyadmin.bidgallery.publicvm.com &#8594; phpMyAdmin</text></g><g id="elem_GMN46"><path d="M954.1468,1094.5 L954.1468,1128 L827.8668,1132 L954.1468,1136 L954.1468,1169.2437 A5,5 0 0 0 959.1468,1174.2437 L1140.1468,1174.2437 A5,5 0 0 0 1145.1468,1169.2437 L1145.1468,1099.5 L1135.1468,1089.5 L959.1468,1089.5 A5,5 0 0 0 954.1468,1094.5 " fill="#FEFFDD" style="stroke:#181818;stroke-width:0.5;"/><path d="M1135.1468,1089.5 L1135.1468,1097 A2.5,2.5 0 0 0 1137.6468,1099.5 L1145.1468,1099.5 L1135.1468,1089.5 " fill="#FEFFDD" style="stroke:#181818;stroke-width:0.5;"/><text fill="#000000" font-family="Arial" font-size="13" font-weight="bold" lengthAdjust="spacing" textLength="143" x="960.1468" y="1106.6938">Promtail collects from:</text><text fill="#000000" font-family="Arial" font-size="13" lengthAdjust="spacing" textLength="123" x="960.1468" y="1121.6426">&#8226; All container logs &#128051;</text><text fill="#000000" font-family="Arial" font-size="13" lengthAdjust="spacing" textLength="136" x="960.1468" y="1136.5913">&#8226; Docker JSON log files</text><text fill="#000000" font-family="Arial" font-size="13" lengthAdjust="spacing" textLength="170" x="960.1468" y="1151.54">&#8226; Automatic service discovery</text><text fill="#000000" font-family="Arial" font-size="13" lengthAdjust="spacing" textLength="144" x="960.1468" y="1166.4888">&#8226; Sends to Loki via HTTP</text></g><!--link user to browser--><g id="link_user_browser"><path d="M1017.6468,81.51 C1017.6468,132.85 1017.6468,218.34 1017.6468,262.41 " fill="none" id="user-to-browser" style="stroke:#181818;stroke-width:1.0;"/><polygon fill="#181818" points="1017.6468,268.41,1021.6468,259.41,1017.6468,263.41,1013.6468,259.41,1017.6468,268.41" style="stroke:#181818;stroke-width:1.0;"/></g><!--link browser to nginx--><g id="link_browser_nginx"><path d="M977.3068,320.59 C915.9168,358.78 804.0817,428.351 735.8517,470.791 " fill="none" id="browser-to-nginx" style="stroke:#181818;stroke-width:1.0;"/><polygon fill="#181818" points="730.7568,473.96,740.5118,472.603,735.0025,471.3191,736.2864,465.8099,730.7568,473.96" style="stroke:#181818;stroke-width:1.0;"/><text fill="#000000" font-family="Arial" font-size="13" lengthAdjust="spacing" textLength="93" x="945.6468" y="365.6938">HTTPS Request</text><text fill="#000000" font-family="Arial" font-size="13" lengthAdjust="spacing" textLength="147" x="918.6468" y="380.6426">*.bidgallery.publicvm.com</text></g><!--link nginx to fe--><g id="link_nginx_fe"><path d="M626.8768,473.8 C598.3568,451.96 565.3968,420.59 549.6468,383.5 C544.2568,370.82 543.4468,364.8 549.6468,352.5 C556.0868,339.73 562.0543,332.6562 573.5643,324.1862 " fill="none" id="nginx-to-fe" style="stroke:#181818;stroke-width:1.0;"/><polygon fill="#181818" points="578.3968,320.63,568.7772,322.7426,574.3697,323.5935,573.5188,329.186,578.3968,320.63" style="stroke:#181818;stroke-width:1.0;"/><text fill="#000000" font-family="Arial" font-size="13" lengthAdjust="spacing" textLength="34" x="587.1468" y="365.6938">GET /</text><text fill="#000000" font-family="Arial" font-size="13" lengthAdjust="spacing" textLength="107" x="550.6468" y="380.6426">React App (Static)</text></g><!--link fe to nginx--><g id="link_fe_nginx"><path d="M646.0468,320.58 C652.4068,330.09 658.8168,341.32 662.6468,352.5 C676.4068,392.65 678.9256,435.88 678.8256,467.82 " fill="none" id="fe-to-nginx" style="stroke:#181818;stroke-width:1.0;"/><polygon fill="#181818" points="678.8068,473.82,682.835,464.8326,678.8225,468.82,674.835,464.8075,678.8068,473.82" style="stroke:#181818;stroke-width:1.0;"/><text fill="#000000" font-family="Arial" font-size="13" lengthAdjust="spacing" textLength="92" x="671.6468" y="365.6938">API Proxy Calls</text><text fill="#000000" font-family="Arial" font-size="13" lengthAdjust="spacing" textLength="30" x="702.6468" y="380.6426">/api/*</text></g><!--link nginx to api--><g id="link_nginx_api"><path d="M684.1368,542.01 C693.9068,591.77 711.1199,679.3926 720.5599,727.4326 " fill="none" id="nginx-to-api" style="stroke:#181818;stroke-width:1.0;"/><polygon fill="#181818" points="721.7168,733.32,723.9064,723.7176,720.7528,728.4138,716.0566,725.2601,721.7168,733.32" style="stroke:#181818;stroke-width:1.0;"/><text fill="#000000" font-family="Arial" font-size="13" lengthAdjust="spacing" textLength="88" x="708.6468" y="645.6938">API Calls /api/*</text><text fill="#000000" font-family="Arial" font-size="13" lengthAdjust="spacing" textLength="86" x="709.6468" y="660.6426">Load Balanced</text></g><!--link nginx to grafana--><g id="link_nginx_grafana"><path d="M527.9968,534 C470.0168,551.61 408.9668,581.57 372.6468,632.5 C339.3268,679.23 346.1268,834.97 360.6468,890.5 C384.6868,982.45 448.927,1071.6687 478.227,1109.2387 " fill="none" id="nginx-to-grafana" style="stroke:#181818;stroke-width:1.0;"/><polygon fill="#181818" points="481.9168,1113.97,479.5363,1104.4132,478.842,1110.0273,473.2279,1109.3329,481.9168,1113.97" style="stroke:#181818;stroke-width:1.0;"/><text fill="#000000" font-family="Arial" font-size="13" lengthAdjust="spacing" textLength="76" x="378.6468" y="872.6938">GET /grafana</text><text fill="#000000" font-family="Arial" font-size="13" lengthAdjust="spacing" textLength="110" x="361.6468" y="887.6426">Dashboard Access</text></g><!--link nginx to prometheus--><g id="link_nginx_prometheus"><path d="M602.0568,542.01 C551.0368,568.81 487.6968,611.94 457.6468,671.5 C426.0168,734.19 435.0868,763 457.6468,829.5 C463.0468,845.41 473.4968,844.3 480.6468,859.5 C496.4768,893.16 502.6416,930.7193 505.3616,954.3793 " fill="none" id="nginx-to-prometheus" style="stroke:#181818;stroke-width:1.0;"/><polygon fill="#181818" points="506.0468,960.34,508.9928,950.9421,505.4758,955.3727,501.0451,951.8557,506.0468,960.34" style="stroke:#181818;stroke-width:1.0;"/><text fill="#000000" font-family="Arial" font-size="13" lengthAdjust="spacing" textLength="102" x="458.6468" y="762.1938">GET /prometheus</text><text fill="#000000" font-family="Arial" font-size="13" lengthAdjust="spacing" textLength="91" x="466.1468" y="777.1426">Access Metrics</text></g><!--link nginx to phpmyadmin--><g id="link_nginx_phpmyadmin"><path d="M527.7668,508 C453.1068,508 373.1668,508 317.7168,508 " fill="none" id="nginx-to-phpmyadmin" style="stroke:#181818;stroke-width:1.0;"/><polygon fill="#181818" points="311.7168,508,320.7168,512,316.7168,508,320.7168,504,311.7168,508" style="stroke:#181818;stroke-width:1.0;"/><text fill="#000000" font-family="Arial" font-size="13" lengthAdjust="spacing" textLength="103" x="368.3968" y="502.1938">Database Access</text></g><!--link api to db--><g id="link_api_db"><path d="M682.5868,733.41 C648.9468,711.96 600.9768,684.96 554.6468,671.5 C477.5468,649.1 451.0568,640.94 374.1468,664 C333.5968,676.16 298.5611,699.2332 269.8311,722.1032 " fill="none" id="api-to-db" style="stroke:#181818;stroke-width:1.0;"/><polygon fill="#181818" points="265.1368,725.84,274.6695,723.3643,269.0487,722.726,269.6871,717.1053,265.1368,725.84" style="stroke:#181818;stroke-width:1.0;"/><text fill="#000000" font-family="Arial" font-size="13" lengthAdjust="spacing" textLength="75" x="375.1468" y="653.1938">SQL Queries</text></g><!--link phpmyadmin to db--><g id="link_phpmyadmin_db"><path d="M251.4968,526.09 C246.3968,566.66 234.2051,663.5868 227.1551,719.6768 " fill="none" id="phpmyadmin-to-db" style="stroke:#181818;stroke-width:1.0;"/><polygon fill="#181818" points="226.4068,725.63,231.498,717.1991,227.0304,720.669,223.5604,716.2014,226.4068,725.63" style="stroke:#181818;stroke-width:1.0;"/><text fill="#000000" font-family="Arial" font-size="13" lengthAdjust="spacing" textLength="96" x="238.6468" y="653.1938">Database Admin</text></g><!--reverse link loki to promtail--><g id="link_loki_promtail"><path d="M700.7526,1001.8568 C715.2026,1028.5568 740.3568,1075.03 757.0868,1105.95 " fill="none" id="loki-backto-promtail" style="stroke:#181818;stroke-width:1.0;"/><polygon fill="#181818" points="697.8968,996.58,698.6627,1006.399,700.2767,1000.9773,705.6984,1002.5913,697.8968,996.58" style="stroke:#181818;stroke-width:1.0;"/><text fill="#000000" font-family="Arial" font-size="13" lengthAdjust="spacing" textLength="101" x="730.6468" y="1041.6938">Collects &amp; Sends</text><text fill="#000000" font-family="Arial" font-size="13" lengthAdjust="spacing" textLength="87" x="737.6468" y="1056.6426">Container Logs</text></g><!--link api to prometheus--><g id="link_api_prometheus"><path d="M696.1268,795.87 C649.1968,841.1 566.8166,920.4759 529.6466,956.3059 " fill="none" id="api-to-prometheus" style="stroke:#181818;stroke-width:1.0;"/><polygon fill="#181818" points="525.3268,960.47,534.5826,957.1038,528.9267,956.9999,529.0305,951.344,525.3268,960.47" style="stroke:#181818;stroke-width:1.0;"/><text fill="#000000" font-family="Arial" font-size="13" lengthAdjust="spacing" textLength="98" x="638.1468" y="872.6938">Exposes Metrics</text><text fill="#000000" font-family="Arial" font-size="13" lengthAdjust="spacing" textLength="123" x="625.6468" y="887.6426">/actuator/prometheus</text></g><!--link prometheus to grafana--><g id="link_prometheus_grafana"><path d="M496.6968,996.92 C491.6468,1005.97 486.2168,1017.43 483.6468,1028.5 C476.8068,1058 482.5852,1087.449 488.4252,1107.979 " fill="none" id="prometheus-to-grafana" style="stroke:#181818;stroke-width:1.0;"/><polygon fill="#181818" points="490.0668,1113.75,491.4517,1103.999,488.6988,1108.9408,483.757,1106.1879,490.0668,1113.75" style="stroke:#181818;stroke-width:1.0;"/><text fill="#000000" font-family="Arial" font-size="13" lengthAdjust="spacing" textLength="96" x="484.6468" y="1041.6938">Provides Metrics</text><text fill="#000000" font-family="Arial" font-size="13" lengthAdjust="spacing" textLength="87" x="489.1468" y="1056.6426">for Dashboards</text></g><!--link loki to grafana--><g id="link_loki_grafana"><path d="M666.0568,996.63 C653.7668,1006 638.3268,1017.83 624.6468,1028.5 C623.3168,1029.54 558.3336,1081.1763 521.9536,1110.0963 " fill="none" id="loki-to-grafana" style="stroke:#181818;stroke-width:1.0;"/><polygon fill="#181818" points="517.2568,1113.83,526.7911,1111.3607,521.1708,1110.7186,521.8129,1105.0983,517.2568,1113.83" style="stroke:#181818;stroke-width:1.0;"/><text fill="#000000" font-family="Arial" font-size="13" lengthAdjust="spacing" textLength="81" x="625.6468" y="1041.6938">Provides Logs</text><text fill="#000000" font-family="Arial" font-size="13" lengthAdjust="spacing" textLength="68" x="632.1468" y="1056.6426">for Analysis</text></g><!--link api to payment--><g id="link_api_payment"><path d="M772.1568,795.65 C838.8268,840.8 957.4593,921.1549 1010.4693,957.0649 " fill="none" id="api-to-payment" style="stroke:#181818;stroke-width:1.0;"/><polygon fill="#181818" points="1015.4368,960.43,1010.229,952.0707,1011.2972,957.6258,1005.7422,958.694,1015.4368,960.43" style="stroke:#181818;stroke-width:1.0;"/><text fill="#000000" font-family="Arial" font-size="13" lengthAdjust="spacing" textLength="121" x="917.1468" y="872.6938">Payment Processing</text><text fill="#000000" font-family="Arial" font-size="13" lengthAdjust="spacing" textLength="128" x="913.6468" y="887.6426">POST paymentsIntent</text></g><!--link api to auth--><g id="link_api_auth"><path d="M822.8668,795.53 C858.4768,806.53 899.3268,818.88 936.6468,829.5 C987.0368,843.84 1002.0468,839.93 1050.6468,859.5 C1083.6868,872.8 1092.6568,876.48 1120.6468,898.5 C1144.1268,916.97 1163.026,938.5369 1176.706,955.6169 " fill="none" id="api-to-auth" style="stroke:#181818;stroke-width:1.0;"/><polygon fill="#181818" points="1180.4568,960.3,1177.9526,950.7748,1177.3311,956.3974,1171.7085,955.776,1180.4568,960.3" style="stroke:#181818;stroke-width:1.0;"/><text fill="#000000" font-family="Arial" font-size="13" lengthAdjust="spacing" textLength="68" x="1145.1468" y="872.6938">OAuth Flow</text><text fill="#000000" font-family="Arial" font-size="13" lengthAdjust="spacing" textLength="137" x="1110.6468" y="887.6426">POST /verify user token</text></g><!--SRC=[xLdTZXkt5RwVfpYHWNIrpaZhjLq4Gc5KqchNwqehMICx3I0We6OeYTWPSa9oj2iO1NALww8lKA2lq3VA4_GHUlWpFsidsbmOkKZa2rj3dk_mu_dZEV0N2LqpJk5YElpRQ0v_OTccjzKwLxrkLvAxpeRfRR4g59Mnu9fotOb5rjL5JXBvl9kdXEiYIqE6k-4Q9KALIwQfwcP4QIgx2TsPFTLDH7nBPIVdcrV15_xG-MYuwDzSZKSGfqIfGDqodXD9Ca01KgJw4ZNUa8n2NpAIDlQbA7Wo599J2S_E6XjMqO34jnilaWe9tsoHqYT2GYPKEe51YeY6WDgIHDmnle4rIHKD0Yroq09MGck1x9YaiMQ21m69DU9Rf0tlq4Oj80gCiU39c6ssUf0M58B0I1E-IIcqLcqOfWpj20Cfxb1ooK_c5BL0DEktBNxbDXegWZWLHGAj2uRk8EaqfeIZ6bnhUQahIVRm8G1e71KZfrM1_e68oXqgV0hE2J3Y6pH_YOqqfQbb-Y503UPFKyipP4pokJ0QPYdHQo4p-D-___bVIpOckRHRJjTmZym-U2qFzDnSNT_ytUBmnfN2ESM_5OMP5FTx-1B6WYGm81XMCPNj9J_jh5Yo8MbAvRwJ5wkKnRlCXA0zt5pZ7fxC6B_rH_wZl46E3YKRm_-y3PVIncu2_JotmBLV-AuKgzdNv1_GTpvw2ekelCDxZ2aO52nDdDlMz34cpzjW8jCIcLqxNxllWpouI10TOLvXF0w4C3H6sOecD865o6AYuLcdS-DvbSdhDH-q7ydPOvnVjE62QB8YwAH8ux859dxf4VkLOj2Q44pWYu7dgEGknC3HXF4mB8N2PBNa9edKLvZkcYcDFp0kaY8slwOcMvKxVVM0zKUUohVvPDzFCiRhACMrR4_isiFxkdy_kVNBDam4PvZQnkOODUxWh5hxzO4p5hSCQYQf-Jp07Y-SKRsbXMgmhzSEGR46h0adDMxZ5nuv3jsGba4z5Xl0afXIKzRQrUbMv83b0hE2qLDPC6d3w1xhFoUfhJuifghLB8hEMWqc2TQP6TbdfZIMsP7xx_ha9W0JUzelzBOI9-R3oIANu4yGXY4CftFppC3bUFgDMGXiUGx3LsMT3SfwQzPSHUb1w_LYCOkmF7rVKAKFrQ70GH2B1G21LwC5T9VSrGkC73Z1jD4iRbUIA6eI3sMHEDRMD5NGnPNkwP8twr_IH9I-B4_mtqj-GTHs9OZ4cXAZaLKJr0YS4jTOMdA7W0dLaiKrKXel6NYTDGYloa1vJe0NVc0pSnrNoEsbbjpTgcLSKQ6_B6jWO8nGdOKvZHgYjsDuMr39C5g2nl5X9L6pC1kjZxqy7KIZ-Vl-u7fylVYszdaLms6HeogRXAZCHxf2KX4oGiP3V1UmAc4qO2OW1yln4qkExdEXQ6KuSz5O5mHJfc7VLj00XTXEy8TkH4ljMDBKWYyhLEv4lAKP_WBAy7EGFYRPNZ5bZV59rjLNyCbabFYVgCou4klPai-cqQAKKTUsrQklRpCBWIxVBbDnvm5TVBxPUkzw7YtGhvP5FqcOwO-G1nVO3OBXYLqNjeRxmAn0IjSQnDfa0YRswQc9dH5FSi7m-DxfAIx-zCD_8BeZcmsLFUWgzoiiM9VnXDvtjZfBlPHXXNmPFeLuQCzba-7ShHIL3udVpFrdBJ1Wo9bl_7wyfV6jABJfS6EAkU-bt2lqiqAsdVHYhob9zTQ8bN6njIj-stkykL_7Ic3w0sEZm5dAPeWnbSqpQwogVPfWL6oeSLbjiZg4XKI6IajhbTAWqHYmjT9iRQn58QiqU05RWLQs0g4vWeVdkIPkZdUc3IULtTGlrKZuwST_GLKGFUYH_iHYcZqF1eX7-cmuYFHleKVKnZq8gjzUZpC9U11X7lVoZAfQ7KJKtKd3py73d2YhbRLzzKB7PR52SsUryVkfsIfTdc9Li6-vtxrm3V-RQ7fZzc3DKghgh16PUPf0kLg1SusAZP_tPR2OecZc7jl4x1W1yomsYF_LrF7WEBSTvxRZt7QSsuvpst5k-mnpst50- -q7jCypY_rHngpVVgGwpap7cUauC_sEPgQP-P-pTvCnc3uQGmrRmVEpynUTvoUBRG6NT0NFNiBvMU_5MU_i9GpnPJ3RxU3aQZRUdOCIXNI7OrQi2XEixU0DsH6Ou-J0Cje3ytMocBGX6fMBM2rs30FFXkwRznCd1A-5ZdAXhV2VNuG3fil9u_qak70J7K9ZuPBztU8o_3eOutDUO1hqWF9WY3ERbdlSY_uF]--></g></svg>